<svg width="19" height="23" viewBox="0 0 19 23" fill="none" xmlns="http://www.w3.org/2000/svg">
<path d="M13.3576 19.6592C15.3031 18.9113 15.7431 17.4095 15.3279 16.3297C15.1252 15.8023 14.9025 15.4522 14.6863 15.1148C14.3153 14.5335 13.9647 13.9832 13.8705 12.7326C13.8357 12.2627 13.9933 11.7596 14.1772 11.1752C14.363 10.5866 14.5707 9.91845 14.6243 9.14502C14.7948 6.63794 13.9406 4.557 12.2199 3.28731C10.5681 2.0691 8.31126 1.73796 6.46771 2.44667C4.71574 3.12017 3.23237 4.55851 2.49591 6.29468C1.92518 7.64159 1.86712 8.98132 2.32973 10.07C3.64385 13.1576 5.65996 14.7105 7.28105 15.9592C8.09756 16.588 8.80296 17.1307 9.25338 17.751C10.9548 20.0997 11.8568 20.2362 13.3576 19.6592V19.6592Z" fill="url(#paint0_radial_16:606)"/>
<path d="M6.5526 2.67146C4.85972 3.32224 3.42579 4.71276 2.71422 6.39019C2.17748 7.65791 2.11602 8.96674 2.54762 9.9792C3.83663 13.0103 5.82627 14.5429 7.42498 15.773C8.25603 16.4132 8.97393 16.9663 9.44457 17.6128C10.8477 19.5471 11.5973 20.0813 13.271 19.4379C15.0643 18.7485 15.4792 17.3886 15.1049 16.4151C14.9107 15.9099 14.694 15.5711 14.4848 15.2429C14.0971 14.6357 13.7304 14.0612 13.6334 12.7505C13.5951 12.2362 13.7597 11.7118 13.9507 11.106C14.131 10.5297 14.3359 9.87617 14.3868 9.13092C14.5506 6.7078 13.7313 4.69993 12.0774 3.48081C10.4909 2.30875 8.32082 1.99172 6.5526 2.67146V2.67146ZM6.38224 2.2283C9.87288 0.886413 15.2731 3.06957 14.8602 9.16258C14.7548 10.7189 14.0416 11.8408 14.1068 12.716C14.2473 14.6119 14.9802 14.7676 15.5481 16.2448C16.0405 17.5255 15.412 19.1235 13.4414 19.8811C11.4708 20.6386 10.5026 19.8799 9.05991 17.8912C7.76841 16.1106 4.11447 14.8754 2.11014 10.1643C0.979793 7.50625 2.89308 3.56962 6.38224 2.2283V2.2283Z" fill="#EDA600"/>
<path d="M3.78957 9.98166C2.95068 8.00674 4.34465 5.09206 6.9076 4.1068C9.47055 3.12154 13.4497 4.75737 13.1639 9.27557C13.091 10.4311 12.1829 11.2973 12.1645 12.0081C12.146 12.7188 12.7841 13.1788 13.1689 13.7345C13.5561 14.2961 13.8488 14.8194 13.5121 15.3151C12.7519 16.4296 11.7844 14.2346 10.3532 14.7017C8.94622 15.1612 9.6384 16.5736 8.20384 14.9192C7.13155 13.6868 5.27826 13.4837 3.78957 9.98166V9.98166Z" fill="url(#paint1_radial_16:606)"/>
<path opacity="0.8" d="M10.7926 7.71192C10.8094 7.64954 10.8968 7.70069 10.8857 7.76432C10.8064 8.25936 10.5248 9.02207 10.043 9.3565C9.33484 9.84747 8.60743 10.456 8.41537 11.359C8.0234 13.2018 9.29097 14.6643 11.0638 14.5169C11.3592 14.4915 11.3497 14.6036 11.0537 14.6276C9.26005 14.7779 7.74494 13.7123 7.80252 11.8201C7.87005 9.56112 10.2643 9.77331 10.7926 7.71192V7.71192Z" fill="#EDA600"/>
<path d="M11.8873 5.39023C11.8873 5.39023 8.65116 3.40264 5.9902 5.46492C4.74245 6.4312 4.1171 8.20942 4.46329 9.75829C4.85693 11.5144 8.44526 15.0621 8.44526 15.0621L7.69724 14.563C7.69724 14.563 3.91878 11.9056 3.66467 9.48035C3.0447 3.58941 9.29012 3.05358 10.7994 4.50969C11.5554 5.24144 11.8873 5.39023 11.8873 5.39023Z" fill="#EDA600"/>
<path d="M11.4102 11.6909C11.4995 11.2175 12.0349 10.3741 12.9506 10.5155C13.387 10.5834 13.2915 13.299 13.2151 13.6692C13.2 13.7445 13.2259 13.8736 12.8791 13.8713C12.5729 13.8686 12.085 13.6492 11.8351 13.2858C11.5357 12.8465 11.299 12.2881 11.4102 11.6909V11.6909Z" fill="#D48322"/>
<defs>
<radialGradient id="paint0_radial_16:606" cx="0" cy="0" r="1" gradientUnits="userSpaceOnUse" gradientTransform="translate(10.9718 13.3476) rotate(158.972) scale(11.6365)">
<stop stop-color="#FFD54F"/>
<stop offset="0.747" stop-color="#FFC107"/>
</radialGradient>
<radialGradient id="paint1_radial_16:606" cx="0" cy="0" r="1" gradientUnits="userSpaceOnUse" gradientTransform="translate(9.26407 9.81989) rotate(158.972) scale(5.11416 6.87855)">
<stop offset="0.486" stop-color="#FFCA28" stop-opacity="0.8"/>
<stop offset="0.86" stop-color="#FFB300"/>
</radialGradient>
</defs>
</svg>
