<svg width="20" height="23" viewBox="0 0 20 23" fill="none" xmlns="http://www.w3.org/2000/svg">
<path d="M5.7108 19.8975C3.74172 19.1405 3.29641 17.6205 3.71656 16.5275C3.92175 15.9938 4.14721 15.6394 4.366 15.2979C4.7415 14.7095 5.09631 14.1526 5.19166 12.8868C5.22689 12.4112 5.06741 11.902 4.88124 11.3105C4.69323 10.7148 4.48301 10.0385 4.42871 9.25569C4.25613 6.71819 5.12071 4.61201 6.86233 3.32691C8.53414 2.09392 10.8184 1.75877 12.6843 2.47607C14.4575 3.15774 15.9589 4.61354 16.7043 6.37077C17.2819 7.73403 17.3407 9.09001 16.8725 10.1919C15.5424 13.317 13.5019 14.8887 11.8611 16.1525C11.0347 16.789 10.3207 17.3382 9.86483 17.9661C8.14272 20.3433 7.22985 20.4814 5.7108 19.8975V19.8975Z" fill="url(#paint0_radial_16:607)"/>
<path d="M12.5984 2.70387C14.3118 3.36255 15.7632 4.76994 16.4834 6.46772C17.0266 7.75083 17.0888 9.07553 16.652 10.1003C15.3473 13.1682 13.3336 14.7193 11.7155 15.9644C10.8743 16.6123 10.1477 17.1722 9.67137 17.8265C8.25118 19.7843 7.49249 20.3249 5.79851 19.6737C3.98342 18.976 3.56355 17.5996 3.94232 16.6143C4.13888 16.103 4.35825 15.76 4.57003 15.4278C4.96243 14.8133 5.33356 14.2318 5.43167 12.9052C5.47045 12.3847 5.30384 11.8539 5.11054 11.2407C4.92804 10.6575 4.7207 9.996 4.66917 9.24171C4.50339 6.78919 5.33268 4.75696 7.00656 3.52305C8.61238 2.33676 10.8088 2.01588 12.5984 2.70387V2.70387ZM12.7709 2.25534C9.23786 0.897168 3.77216 3.10682 4.19007 9.27376C4.29671 10.8489 5.01854 11.9845 4.95256 12.8703C4.8104 14.7892 4.06854 14.9467 3.49378 16.4419C2.99546 17.7381 3.63158 19.3555 5.62608 20.1223C7.62058 20.889 8.6005 20.1211 10.0607 18.1083C11.3679 16.3061 15.0661 15.0559 17.0948 10.2877C18.2389 7.59733 16.3023 3.61293 12.7709 2.25534V2.25534Z" fill="#EDA600"/>
<path d="M15.3949 10.1026C16.244 8.1037 14.8331 5.15366 12.2391 4.15645C9.64504 3.15923 5.61758 4.8149 5.90689 9.38793C5.98068 10.5575 6.89981 11.4342 6.91845 12.1536C6.93708 12.8729 6.29131 13.3385 5.90177 13.901C5.50994 14.4694 5.21366 14.999 5.5545 15.5007C6.32383 16.6288 7.30316 14.4071 8.7517 14.8799C10.1757 15.3449 9.47515 16.7745 10.9271 15.1001C12.0124 13.8527 13.8882 13.6471 15.3949 10.1026V10.1026Z" fill="url(#paint1_radial_16:607)"/>
<path opacity="0.8" d="M8.30691 7.80522C8.29 7.74209 8.20145 7.79386 8.21273 7.85826C8.29297 8.35931 8.57796 9.13127 9.06563 9.46976C9.78241 9.96668 10.5186 10.5826 10.713 11.4965C11.1098 13.3617 9.8268 14.842 8.03251 14.6928C7.7335 14.6671 7.74306 14.7806 8.04265 14.8048C9.8581 14.957 11.3916 13.8785 11.3333 11.9632C11.265 9.67686 8.84167 9.89163 8.30691 7.80522V7.80522Z" fill="#EDA600"/>
<path d="M7.19894 5.45558C7.19894 5.45558 10.4743 3.44387 13.1676 5.53118C14.4305 6.50918 15.0634 8.30898 14.713 9.87663C14.3146 11.6541 10.6827 15.2448 10.6827 15.2448L11.4398 14.7396C11.4398 14.7396 15.2641 12.05 15.5213 9.59532C16.1488 3.63291 9.82761 3.09057 8.30005 4.56435C7.53483 5.30498 7.19894 5.45558 7.19894 5.45558Z" fill="#EDA600"/>
<path d="M7.68183 11.8327C7.59147 11.3535 7.04955 10.4999 6.12277 10.643C5.68106 10.7118 5.77766 13.4603 5.855 13.835C5.87031 13.9112 5.84411 14.0419 6.1951 14.0395C6.50503 14.0368 6.99881 13.8148 7.25176 13.4469C7.55483 13.0023 7.7944 12.4371 7.68183 11.8327V11.8327Z" fill="#D48322"/>
<defs>
<radialGradient id="paint0_radial_16:607" cx="0" cy="0" r="1" gradientUnits="userSpaceOnUse" gradientTransform="translate(8.12558 13.5093) rotate(21.028) scale(11.7777)">
<stop stop-color="#FFD54F"/>
<stop offset="0.747" stop-color="#FFC107"/>
</radialGradient>
<radialGradient id="paint1_radial_16:607" cx="0" cy="0" r="1" gradientUnits="userSpaceOnUse" gradientTransform="translate(9.85402 9.93885) rotate(21.028) scale(5.17622 6.96201)">
<stop offset="0.486" stop-color="#FFCA28" stop-opacity="0.8"/>
<stop offset="0.86" stop-color="#FFB300"/>
</radialGradient>
</defs>
</svg>
